<svg width="500" height="750" viewBox="0 0 500 750" fill="none" xmlns="http://www.w3.org/2000/svg">
<rect width="500" height="750" fill="#D9D9D9"/>
<path d="M150 330.444C150 318.187 159.965 308.222 172.222 308.222H261.111C273.368 308.222 283.333 318.187 283.333 330.444V419.333C283.333 431.59 273.368 441.555 261.111 441.555H172.222C159.965 441.555 150 431.59 150 419.333V330.444ZM344.132 320.653C347.743 322.597 350 326.347 350 330.444V419.333C350 423.43 347.743 427.181 344.132 429.125C340.521 431.069 336.146 430.861 332.708 428.569L299.375 406.347L294.444 403.049V397.111V352.667V346.729L299.375 343.43L332.708 321.208C336.111 318.951 340.486 318.708 344.132 320.653Z" fill="black"/>
</svg>
