<svg width="300" height="450" viewBox="0 0 300 450" fill="none" xmlns="http://www.w3.org/2000/svg">
<rect width="300" height="450" fill="#384252"/>
<path d="M100 203.222C100 197.094 104.983 192.111 111.111 192.111H155.556C161.684 192.111 166.667 197.094 166.667 203.222V247.667C166.667 253.795 161.684 258.778 155.556 258.778H111.111C104.983 258.778 100 253.795 100 247.667V203.222ZM197.066 198.326C198.872 199.299 200 201.174 200 203.222V247.667C200 249.715 198.872 251.59 197.066 252.563C195.26 253.535 193.073 253.431 191.354 252.285L174.687 241.174L172.222 239.524V236.556V214.333V211.365L174.687 209.715L191.354 198.604C193.056 197.476 195.243 197.354 197.066 198.326Z" fill="#0F172A"/>
</svg>
