<svg width="300" height="450" viewBox="0 0 300 450" fill="none" xmlns="http://www.w3.org/2000/svg">
<rect width="300" height="450" fill="#384252"/>
<g clip-path="url(#clip0_1_13)">
<path d="M149.5 223.857C155.183 223.857 160.634 221.599 164.652 217.581C168.671 213.562 170.929 208.112 170.929 202.429C170.929 196.745 168.671 191.295 164.652 187.276C160.634 183.258 155.183 181 149.5 181C143.817 181 138.366 183.258 134.348 187.276C130.329 191.295 128.071 196.745 128.071 202.429C128.071 208.112 130.329 213.562 134.348 217.581C138.366 221.599 143.817 223.857 149.5 223.857ZM141.849 231.893C125.359 231.893 112 245.252 112 261.742C112 264.488 114.227 266.714 116.972 266.714H182.028C184.773 266.714 187 264.488 187 261.742C187 245.252 173.641 231.893 157.151 231.893H141.849Z" fill="#0F172A"/>
</g>
<defs>
<clipPath id="clip0_1_13">
<rect width="75" height="85.7143" fill="white" transform="translate(112 181)"/>
</clipPath>
</defs>
</svg>
